{
    "asset": {
        "version": "1.0",
        "generator": "Open Asset Import Library (assimp v4.1.0)"
    },
    "accessors": {
        "Body1_mesh_accessor": {
            "bufferView": "Body1_mesh_view",
            "byteOffset": 0,
            "byteStride": 0,
            "componentType": 5126,
            "count": 5730,
            "type": "VEC3",
            "max": [
                6.0,
                21.99997329711914,
                4.082119941711426
            ],
            "min": [
                0.0,
                -0.0,
                -0.7500050067901611
            ]
        },
        "Body1_mesh_accessor_0": {
            "bufferView": "Body1_mesh_view_0",
            "byteOffset": 0,
            "byteStride": 0,
            "componentType": 5126,
            "count": 5730,
            "type": "VEC3",
            "max": [
                1.0,
                1.0,
                1.0
            ],
            "min": [
                -1.0,
                -1.0,
                -1.0
            ]
        },
        "Body1_mesh_accessor_1": {
            "bufferView": "Body1_mesh_view_1",
            "byteOffset": 0,
            "byteStride": 0,
            "componentType": 5126,
            "count": 5730,
            "type": "VEC2",
            "max": [
                13.997522354125977,
                10.42477798461914
            ],
            "min": [
                -13.61144733428955,
                -20.99997329711914
            ]
        },
        "Body1_mesh_accessor_2": {
            "bufferView": "Body1_mesh_view_2",
            "byteOffset": 0,
            "byteStride": 0,
            "componentType": 5123,
            "count": 22578,
            "type": "SCALAR",
            "max": [
                5729.0
            ],
            "min": [
                0.0
            ]
        }
    },
    "buffers": {
        "../../download/rv2ssef1y9mh/rv2ssef1y9mh": {
            "byteLength": 228516,
            "type": "arraybuffer",
            "uri": "../../download/rv2ssef1y9mh/rv2ssef1y9mh.bin"
        }
    },
    "bufferViews": {
        "Body1_mesh_view": {
            "buffer": "../../download/rv2ssef1y9mh/rv2ssef1y9mh",
            "byteOffset": 0,
            "byteLength": 68760,
            "target": 34962
        },
        "Body1_mesh_view_0": {
            "buffer": "../../download/rv2ssef1y9mh/rv2ssef1y9mh",
            "byteOffset": 68760,
            "byteLength": 68760,
            "target": 34962
        },
        "Body1_mesh_view_1": {
            "buffer": "../../download/rv2ssef1y9mh/rv2ssef1y9mh",
            "byteOffset": 137520,
            "byteLength": 45840,
            "target": 34962
        },
        "Body1_mesh_view_2": {
            "buffer": "../../download/rv2ssef1y9mh/rv2ssef1y9mh",
            "byteOffset": 183360,
            "byteLength": 45156,
            "target": 34963
        }
    },
    "materials": {
        "DefaultMaterial": {
            "values": {
                "ambient": [
                    0.0,
                    0.0,
                    0.0,
                    1.0
                ],
                "diffuse": [
                    0.6000000238418579,
                    0.6000000238418579,
                    0.6000000238418579,
                    1.0
                ],
                "specular": [
                    0.0,
                    0.0,
                    0.0,
                    1.0
                ],
                "emission": [
                    0.0,
                    0.0,
                    0.0,
                    1.0
                ],
                "shininess": 0.0
            }
        },
        "Steel_-_Satin": {
            "values": {
                "ambient": [
                    0.0,
                    0.0,
                    0.0,
                    1.0
                ],
                "diffuse": [
                    0.6000000238418579,
                    0.6000000238418579,
                    0.6000000238418579,
                    1.0
                ],
                "specular": [
                    0.0,
                    0.0,
                    0.0,
                    1.0
                ],
                "emission": [
                    0.0,
                    0.0,
                    0.0,
                    1.0
                ],
                "shininess": 0.0
            }
        }
    },
    "meshes": {
        "Body1_mesh": {
            "name": "",
            "primitives": [
                {
                    "mode": 4,
                    "material": "Steel_-_Satin",
                    "indices": "Body1_mesh_accessor_2",
                    "attributes": {
                        "POSITION": "Body1_mesh_accessor",
                        "NORMAL": "Body1_mesh_accessor_0",
                        "TEXCOORD_0": "Body1_mesh_accessor_1"
                    }
                }
            ]
        }
    },
    "nodes": {
        "rv2ssef1y9mh.obj": {
            "children": [
                "Body1"
            ]
        },
        "Body1": {
            "meshes": [
                "Body1_mesh"
            ]
        }
    },
    "scenes": {
        "defaultScene": {
            "nodes": [
                "rv2ssef1y9mh.obj"
            ]
        }
    },
    "scene": "defaultScene"
}
